<svg xmlns="http://www.w3.org/2000/svg" viewBox="0 0 400 300" fill="none" aria-hidden="true">
  <defs>
    <linearGradient id="sprayBg" x1="0" y1="0" x2="0" y2="1">
      <stop offset="0%" stop-color="#eef0f7"/>
      <stop offset="100%" stop-color="#dde0ec"/>
    </linearGradient>
  </defs>
  <rect width="400" height="300" fill="url(#sprayBg)"/>
  <g transform="translate(200, 60)">
    <rect x="-22" y="0" width="44" height="80" rx="10" fill="#222875"/>
    <rect x="-22" y="0" width="44" height="14" fill="#1a1f5a"/>
    <rect x="-10" y="-16" width="20" height="20" fill="#c89968"/>
    <rect x="-6" y="-26" width="12" height="12" fill="#c89968"/>
  </g>
  <g stroke="#c89968" stroke-linecap="round" stroke-width="2.5" fill="none">
    <path d="M150 50 Q140 30 120 25"/>
    <path d="M170 45 Q165 25 150 15"/>
    <path d="M230 45 Q235 25 250 15"/>
    <path d="M250 50 Q260 30 280 25"/>
    <circle cx="115" cy="22" r="3" fill="#c89968"/>
    <circle cx="145" cy="13" r="3" fill="#c89968"/>
    <circle cx="255" cy="13" r="3" fill="#c89968"/>
    <circle cx="285" cy="22" r="3" fill="#c89968"/>
  </g>
  <g transform="translate(200, 220)">
    <ellipse cx="0" cy="20" rx="120" ry="6" fill="#c89968" opacity=".15"/>
    <path d="M-100 0 Q-90 -10 -70 0 Q-50 10 -30 0 Q-10 -10 10 0 Q30 10 50 0 Q70 -10 90 0 Q110 10 100 0" stroke="#222875" stroke-width="3" fill="none" stroke-linecap="round"/>
    <circle cx="-50" cy="-20" r="6" fill="#ffffff" stroke="#222875" stroke-width="2"/>
    <circle cx="50" cy="-25" r="5" fill="#ffffff" stroke="#222875" stroke-width="2"/>
    <circle cx="0" cy="-30" r="7" fill="#ffffff" stroke="#222875" stroke-width="2"/>
  </g>
</svg>