<svg xmlns="http://www.w3.org/2000/svg" viewBox="0 0 400 300" fill="none" aria-hidden="true">
  <defs>
    <linearGradient id="storeBg" x1="0" y1="0" x2="0" y2="1">
      <stop offset="0%" stop-color="#eef0f7"/>
      <stop offset="100%" stop-color="#dde0ec"/>
    </linearGradient>
    <linearGradient id="windowG" x1="0" y1="0" x2="1" y2="1">
      <stop offset="0%" stop-color="#dde0ec"/>
      <stop offset="100%" stop-color="#dde0ec"/>
    </linearGradient>
  </defs>
  <rect width="400" height="300" fill="url(#storeBg)"/>
  <rect x="40" y="40" width="320" height="220" fill="#c89968" opacity=".15"/>
  <rect x="60" y="60" width="280" height="170" fill="url(#windowG)"/>
  <line x1="200" y1="60" x2="200" y2="230" stroke="#c89968" stroke-width="3"/>
  <line x1="60" y1="145" x2="340" y2="145" stroke="#c89968" stroke-width="2" opacity=".5"/>
  <path d="M70 70 Q80 100 75 130 L130 130 Q125 100 135 70 Z" fill="#222875" opacity=".4"/>
  <rect x="80" y="180" width="40" height="40" fill="#222875" opacity=".3"/>
  <circle cx="270" cy="100" r="14" fill="#222875" opacity=".35"/>
  <rect x="245" y="180" width="35" height="35" fill="#c89968" opacity=".25"/>
  <rect x="60" y="232" width="280" height="8" fill="#222875"/>
  <rect x="50" y="240" width="300" height="20" fill="#c89968" opacity=".4"/>
  <circle cx="330" cy="60" r="20" fill="#222875"/>
  <path d="M322 60 L327 65 L338 53" stroke="#ffffff" stroke-width="3" stroke-linecap="round" stroke-linejoin="round" fill="none"/>
  <path d="M85 80 Q105 85 125 80" stroke="#ffffff" stroke-width="2" opacity=".6" fill="none" stroke-linecap="round"/>
  <path d="M225 95 Q240 100 255 95" stroke="#ffffff" stroke-width="2" opacity=".6" fill="none" stroke-linecap="round"/>
</svg>